<svg width="32" height="32" viewBox="0 0 32 32" fill="none" xmlns="http://www.w3.org/2000/svg">
    <path d="m25.598 13.16-.448.601.448-.601zM15.402 6.446l-.448-.601.448.601zm1.196 0 .448-.601-.448.601zM6.75 26V13.961h-1.5V26h1.5zm.1-12.239 9-6.714-.896-1.202-9 6.714.897 1.202zm9.3-6.714 9 6.714.896-1.202-9-6.714-.896 1.202zm9.1 6.914V26h1.5V13.961h-1.5zm-.1-.2a.25.25 0 0 1 .1.2h1.5a1.75 1.75 0 0 0-.704-1.402l-.896 1.202zm-9.3-6.714a.25.25 0 0 1 .3 0l.896-1.202a1.75 1.75 0 0 0-2.092 0l.896 1.202zm-9.1 6.914a.25.25 0 0 1 .1-.2l-.896-1.202a1.75 1.75 0 0 0-.704 1.402h1.5z" fill="#444"/>
    <path fill-rule="evenodd" clip-rule="evenodd" d="M5 26h22H5z" fill="#fff"/>
    <path d="M5 26h22" stroke="#444" stroke-width="1.5" stroke-linecap="round"/>
</svg>
